<?xml version="1.0" encoding="UTF-8" standalone="no"?>
<!-- Created with Inkscape (http://www.inkscape.org/) -->

<svg
   width="210mm"
   height="210mm"
   viewBox="0 0 210 210"
   version="1.1"
   id="svg1"
   xml:space="preserve"
   inkscape:version="1.3.2 (091e20ef0f, 2023-11-25, custom)"
   sodipodi:docname="logo.svg"
   xmlns:inkscape="http://www.inkscape.org/namespaces/inkscape"
   xmlns:sodipodi="http://sodipodi.sourceforge.net/DTD/sodipodi-0.dtd"
   xmlns="http://www.w3.org/2000/svg"
   xmlns:svg="http://www.w3.org/2000/svg"><sodipodi:namedview
     id="namedview1"
     pagecolor="#505050"
     bordercolor="#eeeeee"
     borderopacity="1"
     inkscape:showpageshadow="0"
     inkscape:pageopacity="0"
     inkscape:pagecheckerboard="0"
     inkscape:deskcolor="#505050"
     inkscape:document-units="mm"
     inkscape:zoom="0.81197306"
     inkscape:cx="228.45586"
     inkscape:cy="192.1246"
     inkscape:window-width="2560"
     inkscape:window-height="1385"
     inkscape:window-x="0"
     inkscape:window-y="27"
     inkscape:window-maximized="1"
     inkscape:current-layer="layer1" /><defs
     id="defs1" /><g
     inkscape:label="Ebene 1"
     inkscape:groupmode="layer"
     id="layer1"><g
       id="g1476"
       inkscape:label="logo"
       transform="matrix(1.1630378,0,0,1.1630352,78.579909,218.84666)"><path
         sodipodi:type="star"
         style="fill:#1d1c1b;fill-opacity:1;stroke:none;stroke-width:0.264583"
         id="path1473"
         inkscape:flatsided="true"
         sodipodi:sides="6"
         sodipodi:cx="-181.20105"
         sodipodi:cy="-140.29559"
         sodipodi:r1="84.383461"
         sodipodi:r2="73.078224"
         sodipodi:arg1="0.52359878"
         sodipodi:arg2="1.0471976"
         inkscape:rounded="0.02"
         inkscape:randomized="-3.469447e-18"
         d="m -108.12283,-98.103862 c -0.84383,1.461564 -71.39055,42.19173 -73.07822,42.19173 -1.68767,0 -72.23439,-40.730167 -73.07822,-42.191731 -0.84384,-1.461565 -0.84384,-82.921897 0,-84.383457 0.84383,-1.46157 71.39055,-42.19173 73.07822,-42.19173 1.68767,0 72.23439,40.73016 73.07822,42.19173 0.84384,1.46156 0.84384,82.921893 0,84.383458 z"
         inkscape:transform-center-x="-2.2034992e-06"
         inkscape:transform-center-y="5.5569262e-06"
         transform="matrix(1.0240375,0,0,1.0240375,208.27312,41.911389)"
         inkscape:label="hexagon" /><path
         style="fill:#fcfcfc"
         d="m 20.26787,-44.12552 c -5.2391,-7.24041 -12.18879,-13.16776 -24.00724,-20.47565 -4.83249,-2.98815 -17.40721,-10.358 -21.25317,-12.45615 -1.50279,-0.81985 -2.836912,-1.65982 -2.964713,-1.8666 -0.335387,-0.54267 -0.521262,-10.1282 -0.207277,-10.68926 0.195749,-0.34979 1.97359,0.63965 6.87901,3.82843 3.63827,2.36506 7.90202,5.09387 9.475,6.064 3.63032,2.23902 8.12056,5.2397 10.26242,6.85804 0.91415,0.69072 2.97789,2.22063 4.5861,3.39979 10.19267,7.47343 14.22292,10.67277 16.66616,13.23007 l 2.7636,2.89263 1.62491,-1.76315 c 4.47259,-4.85309 12.17782,-10.57278 22.79157,-16.91847 7.57744,-4.53036 26.24957,-14.93085 26.80553,-14.93085 0.10009,0 0.18198,1.56842 0.18198,3.48537 v 3.48538 l -5.37987,2.88392 c -8.75279,4.69201 -14.30889,8.00574 -22.60101,13.47952 -11.52456,7.60758 -17.37856,12.80434 -21.53723,19.11922 -1.10651,1.68021 -2.04603,3.04928 -2.08783,3.04239 -0.0418,-0.007 -0.94088,-1.20778 -1.99794,-2.66863 z"
         id="path1474"
         inkscape:label="book" /><path
         style="fill:#f39d16"
         d="m 19.56428,-56.31405 c -1.52143,-1.62994 -4.93349,-4.53476 -8.11389,-6.90766 -3.0186,-2.25218 -7.04223,-4.77441 -8.36219,-6.24001 -2.3727,-2.63449 -0.77659,-0.79348 -1.76321,-1.88575 l -1.58858,-1.89358 c -4.77932,-5.69692 -7.21347,-10.06771 -8.95641,-16.08222 -2.64522,-9.12812 -2.69209,-19.35619 -0.12489,-27.25774 0.86575,-2.66471 5.05647,-11.49054 5.94889,-12.52863 0.33361,-0.38806 1.52877,-2.26888 2.65593,-4.1796 2.46422,-4.17728 2.88252,-4.00765 2.2224,0.90125 -0.66346,4.93375 -0.55465,18.01777 0.18423,22.15196 0.78525,4.39363 2.08055,8.9043 2.60744,9.07993 0.24845,0.0828 1.68414,-2.42165 3.52311,-6.14578 4.20728,-8.52022 4.83056,-9.99227 6.99308,-16.5161 4.0704,-12.27946 5.97274,-23.04375 6.408,-36.25922 0.14978,-4.54751 0.33952,-6.59019 0.60492,-6.51208 0.72915,0.2146 7.24713,13.8094 8.66687,18.07686 3.99996,12.02302 5.23783,19.49918 6.01638,36.33611 0.39316,8.50239 0.69847,11.29951 1.23002,11.26871 0.55394,-0.0321 2.84072,-3.57938 4.53544,-7.03538 1.86603,-3.80536 3.82726,-9.47202 4.70071,-13.58194 0.68051,-3.20208 0.8874,-12.34834 0.36883,-16.30562 -0.20899,-1.59485 -0.16791,-1.98107 0.19589,-1.84146 0.72869,0.27962 4.76419,6.97993 6.99796,11.61897 3.77883,7.84782 5.24581,13.85987 5.24494,21.49513 -7.5e-4,6.66668 -1.0659,11.63201 -3.63151,16.92872 -1.67496,3.45796 -2.92831,5.33259 -5.6812,8.49732 -2.75089,3.16244 -4.21073,4.47799 -9.34669,8.42285 -9.62901,7.3959 -14.52555,11.87946 -17.11127,15.66808 -0.64167,0.94018 -1.11259,1.7356 -1.62329,3.56714 -0.0264,0.0946 -1.35787,-1.29323 -2.80191,-2.84026 z"
         id="path1475"
         sodipodi:nodetypes="ssscsssssssssssssssssssssssssss"
         inkscape:label="flame" /></g></g></svg>
